<?xml version="1.0" encoding="UTF-8"?>
<svg id="Layer_2" data-name="Layer 2" xmlns="http://www.w3.org/2000/svg" viewBox="0 0 925.51 602.08">
  <defs>
    <style>
      .cls-1 {
        stroke-dasharray: 56.2 12.04;
      }

      .cls-1, .cls-2 {
        fill: none;
        stroke: #6316acff;
        stroke-miterlimit: 10;
        stroke-width: 36px;
      }

      .cls-2 {
        stroke-dasharray: 54 12;
      }
    </style>
  </defs>
  <g id="Layer_1-2" data-name="Layer 1">
    <g>
      <path class="cls-1" d="M903.37,227.66c7.38,7.14,4.41,20.86-5.03,23.25-128.52,32.52-264.39,26.53-390.45-16.69-29.45-10.09-60.81-10.09-90.26,0-126.05,43.22-261.93,49.21-390.45,16.69-9.44-2.39-12.41-16.11-5.03-23.25,49.91-48.29,102.57-92.87,157.55-133.37,50.91-37.51,106.36-72.43,166.89-76.04,37.43-2.23,77.05,10.92,106.08,36.89,5.78,5.17,14.42,5.17,20.21,0,29.02-25.97,68.66-39.12,106.08-36.89,60.53,3.61,115.98,38.53,166.89,76.04,54.97,40.5,107.63,85.09,157.55,133.38Z"/>
      <path class="cls-2" d="M885.47,328.68c7.71-.04,12.59,8.5,8.8,15.4-27.21,49.59-126.16,203.27-320.66,232.46-37.39,5.61-78.62,7.58-116.18,7.54-37.56.04-78.79-1.93-116.18-7.54-194.49-29.19-293.45-182.87-320.66-232.46-3.79-6.91,1.1-15.44,8.8-15.4,161.3.76,253.87,12.98,382.91,52.91,14.73,4.56,29.93,6.83,45.13,6.83s30.41-2.27,45.13-6.83c129.04-39.94,221.61-52.15,382.91-52.91Z"/>
    </g>
  </g>
</svg>